<?xml version="1.0" encoding="utf-8"?>
<!-- Generator: Adobe Illustrator 16.2.1, SVG Export Plug-In . SVG Version: 6.00 Build 0)  -->
<!DOCTYPE svg PUBLIC "-//W3C//DTD SVG 1.1//EN" "http://www.w3.org/Graphics/SVG/1.1/DTD/svg11.dtd">
<svg version="1.1" id="Layer_1" xmlns="http://www.w3.org/2000/svg" xmlns:xlink="http://www.w3.org/1999/xlink" x="0px" y="0px"
	 width="512px" height="512px" viewBox="0 0 512 512" enable-background="new 0 0 512 512" xml:space="preserve">
<g>
	<g>
		<polygon fill="#616774" points="480,128 384,128 384,32 352,32 352,128 256,128 256,160 352,160 352,256 384,256 384,160 480,160 
					"/>
	</g>
	<g>
		<path fill="#616774" d="M352,416c0,17.645-14.355,32-32,32H96c-17.645,0-32-14.355-32-32V96c0-17.645,14.355-32,32-32h160V32H96
			c-35.346,0-64,28.654-64,64v320c0,35.346,28.654,64,64,64h224c35.346,0,64-28.654,64-64v-96h-32V416z"/>
	</g>
</g>
</svg>
